PathFileType	4	(X/Y/Z)	C:\Users\Basilio\Documents\Thesis Gigler\squatting_fais\c3dfiles\039\SLS_pre_back5\markers_experimental.trc
DataRate	CameraRate	NumFrames	NumMarkers	Units	OrigDataRate	OrigDataStartFrame	OrigNumFrames
200.000000	200.000000	4	65	mm	200.000000	483	1934
Frame#	Time	FHD			LBHD			RBHD			C7			T10			CLAV			LSHO			LUUPA			LMUPA			LDUPA			LLEP			LMEP			LRAD			LUL			LRFIN			RSHO			RUPA1			RMUPA			RDUPA			RLEP			RMEP			RRAD			RUL			RUFIN			LASI			RASI			USACR			LSACR			RSACR			LTHI1			LTHI2			LTHI3			LTHI4			LLFC			LMFC			LTIB1			LTIB2			LTIB3			LTIB4			LLMAL			LMMAL			LHEE			LMT1			LMT2			LMT5			RTHI			RTHI2			RTHI3			RTHI4			RLFC			RMFC			RTIB1			RTIB2			RTIB3			RTIB4			RLMAL			RMMAL			RHEE			RMT1			RMT2			RMT5			*61			*62			*63			*64			
		X1	Y1	Z1	X2	Y2	Z2	X3	Y3	Z3	X4	Y4	Z4	X5	Y5	Z5	X6	Y6	Z6	X7	Y7	Z7	X8	Y8	Z8	X9	Y9	Z9	X10	Y10	Z10	X11	Y11	Z11	X12	Y12	Z12	X13	Y13	Z13	X14	Y14	Z14	X15	Y15	Z15	X16	Y16	Z16	X17	Y17	Z17	X18	Y18	Z18	X19	Y19	Z19	X20	Y20	Z20	X21	Y21	Z21	X22	Y22	Z22	X23	Y23	Z23	X24	Y24	Z24	X25	Y25	Z25	X26	Y26	Z26	X27	Y27	Z27	X28	Y28	Z28	X29	Y29	Z29	X30	Y30	Z30	X31	Y31	Z31	X32	Y32	Z32	X33	Y33	Z33	X34	Y34	Z34	X35	Y35	Z35	X36	Y36	Z36	X37	Y37	Z37	X38	Y38	Z38	X39	Y39	Z39	X40	Y40	Z40	X41	Y41	Z41	X42	Y42	Z42	X43	Y43	Z43	X44	Y44	Z44	X45	Y45	Z45	X46	Y46	Z46	X47	Y47	Z47	X48	Y48	Z48	X49	Y49	Z49	X50	Y50	Z50	X51	Y51	Z51	X52	Y52	Z52	X53	Y53	Z53	X54	Y54	Z54	X55	Y55	Z55	X56	Y56	Z56	X57	Y57	Z57	X58	Y58	Z58	X59	Y59	Z59	X60	Y60	Z60	X61	Y61	Z61	X62	Y62	Z62	X63	Y63	Z63	X64	Y64	Z64	X65	Y65	Z65	

484	2.415	-236.2504882812501	1766.731567382813	-671.8106689453126	-397.5023193359376	1755.997192382813	-789.988708496094	-368.3555603027344	1756.560302734375	-651.8794555664064	-450.0600585937501	1589.700073242188	-733.2348022460939	-474.8578491210939	1280.684448242188	-763.3768920898439	nan	nan	nan	-379.5086669921876	1610.208862304688	-884.7808227539065	-211.8117980957032	1580.797973632813	-993.8853759765627	-190.7566223144532	1612.93798828125	-962.1276855468752	-143.0499877929688	1593.321655273438	-992.6643676757815	-76.4532928466797	1604.755493164063	-986.202087402344	-69.38049316406251	1531.64697265625	-955.5919189453127	195.0353546142579	1646.445434570313	-880.399353027344	198.7360534667969	1654.369995117188	-956.0449218750002	270.1288757324219	1693.26611328125	-870.052917480469	-337.8474731445313	1596.935668945313	-584.1749877929689	-172.9925384521485	1536.908203125	-486.2747192382814	-148.3109588623047	1572.89306640625	-511.824432373047	-104.2042007446289	1538.002319335938	-489.3464355468751	-42.86885070800782	1555.602661132813	-500.380096435547	-35.05080032348634	1490.330932617188	-542.5426025390626	240.2939910888672	1619.519409179688	-582.7817993164064	242.5617980957032	1605.159301757813	-508.3692932128907	321.4103393554688	1664.368896484375	-574.0676269531251	-312.4840087890626	1097.182495117188	-895.4297485351565	-301.0443115234376	1075.385864257813	-671.3695068359376	-489.5234375000001	1149.731323242188	-769.434509277344	-494.5940551757814	1119.547485351563	-799.6741943359377	-490.7831420898439	1115.263671875	-740.3146972656251	-312.9474792480469	829.637878417969	-990.1722412109377	-259.1341247558594	764.5000610351564	-1001.298522949219	-213.5985717773438	778.2897949218752	-997.4692382812502	-269.9753723144532	704.4873657226564	-992.1043701171877	-242.017074584961	613.8623046875001	-986.9153442382815	-207.7461242675782	575.1024169921876	-884.0395507812502	-297.6550292968751	481.3679504394532	-966.0417480468752	-376.1991271972657	520.3137207031251	-986.324645996094	-355.8342285156251	482.1632385253907	-979.2600708007815	-412.5451049804689	435.402069091797	-932.0178833007815	-594.2653198242189	396.3677978515626	-926.706970214844	-560.0747070312501	381.4659729003907	-847.413757324219	-651.0798950195314	438.5649414062501	-872.657653808594	-560.2750854492189	223.1057281494141	-856.9993286132815	-577.7828979492189	222.3515625000001	-896.6876220703127	-634.2515869140626	247.4278106689454	-931.602966308594	-323.8273925781251	803.4901123046877	-625.1770019531251	-276.1517028808594	756.3901367187501	-628.7026367187501	-245.8402709960938	764.3959350585939	-637.5715332031251	-293.1702880859376	674.0352172851564	-647.4324951171876	-311.4248657226563	535.6021728515626	-683.6276245117189	-281.7752685546876	539.4545898437501	-799.1057739257815	-275.3528747558594	326.3568420410157	-720.5162963867189	-362.3875122070313	262.2747497558594	-718.2883911132814	-316.9626159667969	252.9042358398438	-718.3272705078126	-300.3392028808594	207.5722351074219	-755.3504028320314	-370.8190307617188	116.0661315917969	-739.3339233398439	-340.5717468261719	137.4707489013672	-822.8101196289065	-438.9939880371095	96.46431732177737	-793.6210937500002	-213.8365936279297	53.90643692016603	-805.1970214843752	-218.4148864746094	56.00135040283205	-759.2932128906251	-273.1672973632813	35.54155731201173	-708.1544799804689	nan	nan	nan	nan	nan	nan	nan	nan	nan	nan	nan	nan	
485	2.42	-236.2865295410157	1766.758544921875	-671.5521850585939	-397.9341735839845	1756.089233398438	-789.7592773437502	-368.4263000488282	1756.474487304688	-651.4191894531251	-449.9784240722657	1589.662353515625	-732.9220581054689	-475.0151367187501	1280.690795898438	-763.1380615234376	nan	nan	nan	-379.5177612304688	1610.257080078125	-884.526794433594	-211.931625366211	1580.819458007813	-993.708190917969	-190.8544311523438	1612.994873046875	-961.9797973632815	-143.1716461181641	1593.388305664063	-992.4710693359377	-76.55994415283205	1604.80224609375	-986.1160278320315	-69.49759674072267	1531.730102539063	-955.4651489257815	195.0166320800782	1646.312744140625	-880.3712158203127	198.6509399414063	1654.370483398438	-956.1109619140627	270.0731506347657	1693.066040039063	-870.1168212890627	-337.6658325195313	1596.801025390625	-584.0407714843751	-172.6286926269532	1537.282958984375	-485.8157348632814	-148.1976928710938	1572.990600585938	-511.6219482421876	-104.0397186279297	1538.104858398438	-489.0537719726564	-42.81576919555665	1555.5654296875	-500.1646423339845	-34.89987564086915	1490.292236328125	-542.3104248046876	240.4918823242188	1619.516357421875	-582.6422119140626	242.7135009765626	1605.170043945313	-508.1457519531251	321.6326904296876	1664.246337890625	-573.8988037109376	-312.5822753906251	1097.169921875	-895.413269042969	-300.9497985839844	1075.487060546875	-671.3189697265626	-489.5408630371095	1149.707885742188	-769.1133422851565	-494.6929626464845	1119.567749023438	-799.461120605469	-490.6585388183595	1115.22705078125	-740.0852661132814	-313.7077331542969	829.5328369140627	-990.2244262695315	-260.0422668457032	764.3998413085939	-1001.49755859375	-214.6417388916016	778.386169433594	-997.7761230468752	-270.9386291503907	704.3980102539064	-992.1829223632815	-242.9895324707032	613.8369140625001	-987.010925292969	-208.718246459961	574.8518676757814	-884.283386230469	-299.2942504882813	482.100067138672	-966.0464477539065	-377.4883728027344	521.1267089843751	-985.8443603515627	-357.3751525878907	482.7930297851564	-978.9333496093752	-414.2706298828126	436.2156982421876	-931.5443115234377	-596.1118774414064	398.5022277832032	-925.5569458007815	-561.8123779296876	383.2197570800782	-846.1658935546877	-651.8439331054689	441.6357727050782	-871.322937011719	-564.5598754882814	224.5179901123047	-855.695495605469	-581.8572387695314	224.9489135742188	-894.799743652344	-638.5741577148439	250.2931213378907	-929.4019165039065	-323.8852233886719	803.5779418945315	-624.7364501953126	-276.1866455078126	756.4678955078126	-628.1520996093751	-245.8751983642579	764.4921264648439	-637.1560058593751	-293.3506469726563	673.8719482421876	-646.9456176757814	-311.4512939453126	535.6356201171876	-683.1706542968751	-281.5428161621094	539.3873291015626	-798.622741699219	-275.5328979492188	326.4165649414063	-719.9017333984376	-362.1324157714844	262.8454589843751	-717.3479614257814	-317.1031799316407	252.9287414550782	-717.5891723632814	-300.3356628417969	207.5444946289063	-754.6860351562501	-371.0152282714844	116.0464019775391	-739.0034790039064	-340.2938537597657	137.9000549316407	-822.2092895507815	-438.7991638183595	96.134880065918	-793.626647949219	-213.8109283447266	54.16228103637697	-805.0901489257815	-218.3909759521485	55.52457427978517	-759.4349365234376	-273.0008850097657	34.91430664062501	-708.4427490234376	nan	nan	nan	nan	nan	nan	nan	nan	nan	nan	nan	nan	
486	2.425	-236.2034149169922	1766.788940429688	-671.1766967773439	-398.1437988281251	1756.184692382813	-789.5200195312502	-368.3316345214844	1756.384765625	-651.0396728515626	-449.9435424804689	1589.689331054688	-732.4850463867189	-475.109344482422	1280.691284179688	-762.8647460937501	nan	nan	nan	-379.4314575195313	1610.399536132813	-884.2416992187502	-212.1699676513672	1580.860107421875	-993.5249023437502	-190.967514038086	1613.10009765625	-961.8842773437502	-143.3440704345703	1593.450073242188	-992.311950683594	-76.82749176025392	1604.798706054688	-985.9875488281252	-69.58750152587892	1531.760864257813	-955.4146728515627	195.0056915283204	1646.076171875	-880.3802490234377	198.492904663086	1654.322875976563	-956.1505126953127	270.0747070312501	1692.838623046875	-870.110534667969	-337.5868835449219	1596.818359375	-583.4404907226564	-172.5053253173828	1537.37451171875	-485.549774169922	-148.0316314697266	1573.036865234375	-511.3666992187501	-103.9076843261719	1538.204956054688	-488.7676086425782	-42.65607833862305	1555.640258789063	-499.9644775390626	-34.76047515869141	1490.333251953125	-542.0322265625001	240.6229095458985	1619.520263671875	-582.4514160156251	242.8809814453126	1605.218017578125	-507.9813842773439	321.8688354492188	1664.148681640625	-573.8025512695314	-312.7041320800782	1097.188720703125	-895.3369140625002	-300.8390808105469	1075.526489257813	-671.2151489257814	-489.535125732422	1149.739379882813	-768.905212402344	-494.6975708007814	1119.634033203125	-799.2217407226565	-490.6810913085939	1115.294067382813	-739.8823242187501	-314.3422851562501	829.4766235351565	-990.188415527344	-260.8772888183594	764.2208862304689	-1001.643798828125	-215.4426269531251	778.105895996094	-997.944030761719	-271.7557678222657	704.2536621093751	-992.2301025390627	-244.031478881836	613.8098754882814	-987.2178344726565	-209.6793060302735	574.5872802734376	-884.5671386718752	-301.3364257812501	483.6688842773439	-966.399108886719	-378.8472900390626	521.8568115234376	-985.4326782226565	-359.0837402343751	482.8321228027345	-978.674011230469	-416.1367187500001	437.3633117675782	-930.9126586914065	-598.0610961914064	400.6262207031251	-924.4494628906252	-563.6002807617189	384.9148864746095	-845.142517089844	-652.5496215820314	444.6973571777345	-870.1097412109377	-568.6698608398439	225.8284149169922	-853.7195434570315	-586.2655029296876	226.6001892089844	-892.8363037109377	-642.7677001953126	252.7109985351563	-927.4176025390627	-324.1109008789063	803.7024536132815	-624.2653808593751	-276.5773315429688	756.3134765625001	-627.9722290039064	-245.9298095703126	764.6623535156251	-636.5688476562501	-293.3178405761719	673.9432373046876	-646.4313964843751	-311.4984436035157	535.5961914062501	-682.4725341796876	-281.3298034667969	539.3950195312501	-798.013854980469	-275.6470336914063	326.4477233886719	-719.2967529296876	-362.6474914550782	262.3186035156251	-716.9351806640626	-317.4322204589844	252.7436981201172	-717.1661376953126	-300.4101257324219	207.6593933105469	-754.0635986328126	-371.2386169433594	116.1554412841797	-738.3916015625001	-340.2155456542969	137.9884643554688	-821.7266235351565	-438.8515014648439	96.14334106445315	-793.363952636719	-213.8015441894532	54.72433471679689	-804.9238281250002	-218.5396881103516	55.7255096435547	-759.2089233398439	-273.1052551269532	35.02112197875977	-708.0986938476564	nan	nan	nan	nan	nan	nan	nan	nan	nan	nan	nan	nan	
487	2.43	-236.2418823242188	1766.86376953125	-670.9107055664064	-398.0403137207032	1756.218017578125	-789.225280761719	-368.4225158691407	1756.809326171875	-650.7050170898439	-449.977508544922	1589.690551757813	-732.0588378906251	-475.1881713867189	1280.669799804688	-762.6043090820314	nan	nan	nan	-379.5552978515626	1610.48291015625	-883.8040161132815	-212.297103881836	1581.045776367188	-993.3523559570315	-191.1002197265625	1613.476196289063	-961.692810058594	-143.5075073242188	1593.46142578125	-992.1592407226565	-76.96179962158205	1604.845336914063	-985.8546142578127	-69.80172729492189	1531.750122070313	-955.268981933594	194.9394531250001	1645.9892578125	-880.4031372070315	198.4285888671876	1654.246826171875	-956.2092895507815	270.1131896972657	1692.219970703125	-870.017761230469	-337.4429626464844	1596.850463867188	-583.0823364257814	-172.3521575927735	1537.424438476563	-485.2615661621095	-147.8855438232422	1573.109130859375	-511.1381225585939	-103.7806167602539	1538.218017578125	-488.548065185547	-42.53080368041993	1555.67626953125	-499.7329101562501	-34.60087966918946	1490.394775390625	-541.7942504882814	240.8024902343751	1619.506103515625	-582.3020019531251	243.0312500000001	1605.220581054688	-507.7968139648439	321.9495849609376	1664.17529296875	-573.6090087890626	-312.8440551757813	1097.192626953125	-895.3123779296877	-300.7527160644532	1075.559326171875	-671.1862182617189	-489.5803527832032	1149.8125	-768.6522216796877	-494.7919311523439	1119.659545898438	-798.9976196289065	-490.6290893554689	1115.2685546875	-739.6351928710939	-315.0956726074219	829.3841552734377	-990.2366943359377	-261.7568054199219	764.0316162109376	-1001.789489746094	-216.1842956542969	778.0794067382815	-998.211364746094	-272.6375122070313	704.0936279296876	-992.5312500000002	-245.1447143554688	613.6963500976564	-987.3914184570315	-210.374496459961	574.4398803710939	-884.7999267578127	-303.4367675781251	484.2666931152345	-966.4940185546877	-380.5792236328126	522.7451171875001	-985.0546875000002	-360.4816589355469	483.9841308593751	-978.3316040039065	-417.7720947265626	438.0868225097657	-930.429870605469	-599.8754272460939	402.4992065429689	-923.4240722656252	-565.1418457031251	386.5264587402345	-844.345642089844	-653.1978759765626	447.2460327148439	-868.9141235351565	-572.7714233398439	227.7370147705079	-852.2254638671877	-590.5734863281251	228.361312866211	-891.0064086914065	-646.8195800781251	255.1213378906251	-925.4087524414065	-324.2045898437501	803.9107666015627	-623.9045410156251	-276.6629943847657	756.4003906250001	-627.4783935546876	-245.9649353027344	764.7869262695314	-635.9642333984376	-293.2785339355469	673.9683837890626	-646.0410156250001	-311.4417419433594	535.6328735351564	-681.8701171875001	-280.9968872070313	539.4229125976564	-797.1953125000002	-275.8447570800782	326.4210815429688	-718.4074096679689	-362.8106079101563	262.4920959472657	-716.3627319335939	-317.5523071289063	252.8935852050782	-716.3363037109376	-300.4355468750001	207.5920562744141	-753.3346557617189	-371.3893432617188	116.0124893188477	-738.0443115234376	-339.9659118652344	138.1072235107422	-821.0765380859377	-439.0493774414064	96.46926879882815	-792.9334716796877	-214.2112884521485	55.69468307495119	-804.8640747070315	-218.5187530517579	55.64821243286134	-759.1199951171876	-273.0346374511719	34.60623168945313	-708.2208251953126	nan	nan	nan	nan	nan	nan	nan	nan	nan	nan	nan	nan	
